# xmcd CD database file
#
# Track frame offsets:
#	150
#	23745
#	59900
#
# Disc length: 1110 seconds
#
# Revision: 4
# Processed by: cddbd v1.5PL3 Copyright (c) Steve Scherf et al.
# Submitted via: CDex 1.51
#
DISCID=24045403
DTITLE=Every Little Thing - Time goes by
DYEAR=1998
DGENRE=JPop
TTITLE0=Time goes by
TTITLE1=Time goes by  Bad Attitude Mix
TTITLE2=Time goes by  Instrumental
EXTD=YEAR: 1998
EXTT0=
EXTT1=
EXTT2=
PLAYORDER=
